<?xml version="1.0" standalone="no"?>
<!DOCTYPE svg PUBLIC "-//W3C//DTD SVG 20010904//EN"
 "http://www.w3.org/TR/2001/REC-SVG-20010904/DTD/svg10.dtd">
<svg version="1.0" xmlns="http://www.w3.org/2000/svg"
 width="864.000000pt" height="1280.000000pt" viewBox="0 0 864.000000 1280.000000"
 preserveAspectRatio="xMidYMid meet">
<g transform="translate(0.000000,1280.000000) scale(0.100000,-0.100000)"
fill="#000000" stroke="none">
<path d="M6303 12775 c-254 -40 -424 -93 -633 -200 -478 -245 -860 -677 -1066
-1208 l-38 -99 -36 6 c-19 3 -73 13 -120 22 -264 49 -610 28 -872 -52 l-88
-27 -57 50 c-294 253 -640 417 -1014 478 -140 23 -426 23 -564 1 -626 -105
-1164 -489 -1500 -1071 -232 -402 -349 -927 -297 -1330 69 -536 238 -1020 518
-1485 158 -263 297 -445 487 -639 258 -261 507 -420 782 -499 78 -22 101 -32
104 -48 1 -10 10 -27 18 -36 9 -10 13 -25 10 -35 -3 -10 -24 -70 -46 -133 -23
-63 -41 -127 -41 -142 l0 -28 107 0 c58 0 166 7 240 16 76 9 138 13 142 8 4
-5 15 -63 25 -129 59 -411 188 -921 343 -1350 164 -456 310 -778 748 -1650
501 -998 630 -1283 822 -1810 61 -168 159 -482 199 -637 25 -96 27 -116 25
-302 -1 -109 -4 -203 -7 -208 -10 -16 7 -186 21 -205 11 -15 16 -16 27 -5 9
10 12 48 9 155 -1 78 0 159 4 180 15 77 27 17 33 -164 7 -175 8 -184 27 -184
19 0 20 8 25 112 3 61 8 114 12 118 6 7 21 -57 35 -155 7 -47 11 -55 31 -58
19 -3 22 1 22 32 0 20 -12 125 -26 234 -45 345 -46 373 -13 567 72 436 180
869 323 1297 134 405 278 756 583 1428 420 923 583 1322 732 1784 184 569 323
1184 401 1766 31 231 21 211 117 235 45 11 87 25 93 31 15 15 -12 69 -85 176
-36 52 -54 89 -57 115 l-3 37 100 37 c159 57 268 117 420 229 486 360 931
1026 1159 1739 111 343 177 784 147 975 -6 39 -18 121 -26 181 -85 620 -464
1217 -995 1568 -248 164 -530 270 -830 313 -185 26 -304 26 -477 -1z m-93
-5015 c143 -43 150 -47 150 -69 0 -11 8 -24 17 -30 17 -9 17 -12 1 -53 -9 -24
-34 -94 -54 -156 -31 -95 -35 -115 -23 -123 20 -12 133 -11 276 3 67 6 126 9
129 5 9 -9 -46 -393 -92 -642 -134 -729 -323 -1369 -610 -2065 -103 -252 -213
-501 -449 -1020 -481 -1057 -692 -1656 -844 -2390 -16 -80 -34 -156 -40 -170
-9 -23 -10 -21 -10 17 -1 23 8 140 18 260 37 410 45 622 45 1118 0 866 -34
1240 -268 2955 -31 223 -57 427 -58 455 l-3 50 47 15 c26 8 49 18 53 22 9 9
-27 78 -90 174 -36 53 -55 93 -57 118 l-3 37 73 24 c489 156 1026 708 1373
1410 38 77 75 152 84 168 l14 27 108 -54 c59 -30 155 -68 213 -86z m-3259
-922 c250 -271 563 -480 829 -553 52 -15 101 -28 108 -30 6 -3 12 -14 12 -26
0 -12 8 -27 17 -34 15 -11 14 -20 -19 -106 -46 -120 -70 -211 -58 -223 14 -14
208 -8 346 9 69 9 131 14 138 12 8 -3 16 -32 20 -69 4 -34 29 -223 56 -418
154 -1120 199 -1492 235 -1950 54 -709 49 -1492 -15 -2176 -23 -253 -57 -534
-65 -542 -11 -11 -22 15 -50 118 -48 181 -210 656 -298 875 -147 367 -252 591
-655 1400 -361 725 -508 1031 -622 1300 -198 466 -351 952 -449 1425 -39 189
-83 470 -77 486 3 8 26 19 51 25 26 7 49 17 52 24 6 17 -26 79 -94 181 -43 65
-54 88 -51 114 3 31 7 35 73 57 88 29 274 121 340 167 28 19 57 35 66 35 9 1
58 -45 110 -101z"/>
</g>
</svg>
