<?xml version="1.0" standalone="no"?>
<!DOCTYPE svg PUBLIC "-//W3C//DTD SVG 20010904//EN"
 "http://www.w3.org/TR/2001/REC-SVG-20010904/DTD/svg10.dtd">
<svg version="1.0" xmlns="http://www.w3.org/2000/svg"
 width="1280.000000pt" height="1280.000000pt" viewBox="0 0 1280.000000 1280.000000"
 preserveAspectRatio="xMidYMid meet">
<metadata>
Created by potrace 1.15, written by Peter Selinger 2001-2017
</metadata>
<g transform="translate(0.000000,1280.000000) scale(0.100000,-0.100000)"
fill="#000000" stroke="none">
<path d="M2550 11194 c-158 -25 -240 -49 -361 -110 -272 -136 -473 -385 -557
-689 l-27 -100 0 -3895 0 -3895 27 -98 c99 -358 348 -628 693 -750 158 -55
-107 -52 4090 -52 l3880 0 100 28 c55 15 150 51 210 81 280 138 477 381 563
693 l27 98 0 3895 0 3895 -27 98 c-106 385 -390 670 -773 775 l-100 27 -3860
1 c-2123 1 -3871 0 -3885 -2z m1655 -1619 c346 -93 595 -417 595 -775 0 -326
-209 -632 -508 -744 -119 -44 -153 -50 -292 -50 -139 0 -173 6 -292 50 -318
120 -527 447 -504 794 7 118 26 192 76 296 111 230 331 399 582 444 73 13 271
4 343 -15z m4800 0 c346 -93 595 -417 595 -775 0 -326 -209 -632 -508 -744
-119 -44 -153 -50 -292 -50 -139 0 -173 6 -292 50 -318 120 -527 447 -504 794
7 118 26 192 76 296 111 230 331 399 582 444 73 13 271 4 343 -15z m-2400
-2400 c346 -93 595 -417 595 -775 0 -326 -209 -632 -508 -744 -119 -44 -153
-50 -292 -50 -139 0 -173 6 -292 50 -318 120 -527 447 -504 794 7 118 26 192
76 296 111 230 331 399 582 444 73 13 271 4 343 -15z m-2400 -2400 c346 -93
595 -417 595 -775 0 -326 -209 -632 -508 -744 -119 -44 -153 -50 -292 -50 -79
0 -154 5 -180 12 -285 81 -484 261 -575 519 -161 463 133 966 617 1053 73 13
271 4 343 -15z m4800 0 c346 -93 595 -417 595 -775 0 -326 -209 -632 -508
-744 -119 -44 -153 -50 -292 -50 -79 0 -154 5 -180 12 -285 81 -484 261 -575
519 -161 463 133 966 617 1053 73 13 271 4 343 -15z"/>
</g>
</svg>
